<mxfile host="65bd71144e">
    <diagram id="gaD7xl-0uXqEQhmGNCxp" name="Page-1">
        <mxGraphModel dx="1434" dy="779" grid="1" gridSize="10" guides="1" tooltips="1" connect="1" arrows="1" fold="1" page="1" pageScale="1" pageWidth="850" pageHeight="1100" math="0" shadow="0">
            <root>
                <mxCell id="0"/>
                <mxCell id="1" parent="0"/>
                <mxCell id="23" value="" style="shape=process;whiteSpace=wrap;html=1;backgroundOutline=1;" vertex="1" parent="1">
                    <mxGeometry x="40" y="180" width="220" height="260" as="geometry"/>
                </mxCell>
                <mxCell id="19" value="" style="edgeStyle=none;html=1;startArrow=none;exitX=1;exitY=0.5;exitDx=0;exitDy=0;" edge="1" parent="1" source="7" target="18">
                    <mxGeometry relative="1" as="geometry"/>
                </mxCell>
                <mxCell id="7" value="Run:&lt;br&gt;get_all_instrument" style="shape=parallelogram;perimeter=parallelogramPerimeter;whiteSpace=wrap;html=1;fixedSize=1;rounded=1;" parent="1" vertex="1">
                    <mxGeometry x="90" y="230" width="120" height="60" as="geometry"/>
                </mxCell>
                <mxCell id="31" style="edgeStyle=none;html=1;exitX=0.5;exitY=1;exitDx=0;exitDy=0;entryX=0;entryY=0.5;entryDx=0;entryDy=0;" edge="1" parent="1" source="10" target="30">
                    <mxGeometry relative="1" as="geometry">
                        <mxPoint x="350" y="450" as="targetPoint"/>
                        <Array as="points">
                            <mxPoint x="150" y="470"/>
                        </Array>
                    </mxGeometry>
                </mxCell>
                <mxCell id="10" value="Run:&lt;br&gt;compile_instrument" style="shape=parallelogram;perimeter=parallelogramPerimeter;whiteSpace=wrap;html=1;fixedSize=1;rounded=1;" vertex="1" parent="1">
                    <mxGeometry x="90" y="340" width="120" height="60" as="geometry"/>
                </mxCell>
                <mxCell id="15" style="edgeStyle=none;html=1;entryX=0.5;entryY=0;entryDx=0;entryDy=0;" edge="1" parent="1" source="14" target="7">
                    <mxGeometry relative="1" as="geometry">
                        <mxPoint x="150" y="160" as="targetPoint"/>
                        <Array as="points">
                            <mxPoint x="150" y="160"/>
                        </Array>
                    </mxGeometry>
                </mxCell>
                <mxCell id="14" value="Load:&lt;br&gt;List_of_Instrument.py" style="rounded=1;whiteSpace=wrap;html=1;" vertex="1" parent="1">
                    <mxGeometry x="575" y="130" width="120" height="60" as="geometry"/>
                </mxCell>
                <mxCell id="25" style="edgeStyle=none;html=1;exitX=0.5;exitY=1;exitDx=0;exitDy=0;entryX=1;entryY=0.5;entryDx=0;entryDy=0;" edge="1" parent="1" source="18" target="10">
                    <mxGeometry relative="1" as="geometry">
                        <Array as="points">
                            <mxPoint x="635" y="370"/>
                        </Array>
                    </mxGeometry>
                </mxCell>
                <mxCell id="18" value="Display:&lt;br&gt;Descriptions of instrument list" style="whiteSpace=wrap;html=1;rounded=1;" vertex="1" parent="1">
                    <mxGeometry x="575" y="230" width="120" height="60" as="geometry"/>
                </mxCell>
                <mxCell id="20" value="python Node" style="rounded=0;whiteSpace=wrap;html=1;" vertex="1" parent="1">
                    <mxGeometry x="80" y="10" width="120" height="60" as="geometry"/>
                </mxCell>
                <mxCell id="21" value="Landscape GUI" style="rounded=0;whiteSpace=wrap;html=1;" vertex="1" parent="1">
                    <mxGeometry x="575" y="10" width="120" height="60" as="geometry"/>
                </mxCell>
                <mxCell id="24" value="" style="edgeStyle=none;html=1;endArrow=none;" edge="1" parent="1" source="7" target="23">
                    <mxGeometry relative="1" as="geometry">
                        <mxPoint x="200" y="260" as="sourcePoint"/>
                        <mxPoint x="575" y="260" as="targetPoint"/>
                    </mxGeometry>
                </mxCell>
                <mxCell id="26" value="array of strings" style="text;html=1;strokeColor=none;fillColor=none;align=center;verticalAlign=middle;whiteSpace=wrap;rounded=0;" vertex="1" parent="1">
                    <mxGeometry x="290" y="230" width="210" height="30" as="geometry"/>
                </mxCell>
                <mxCell id="27" value="array of (parameter name string, parameter value string) bundle&lt;br&gt;short as parameter array" style="text;html=1;strokeColor=none;fillColor=none;align=center;verticalAlign=middle;whiteSpace=wrap;rounded=0;" vertex="1" parent="1">
                    <mxGeometry x="300" y="430" width="210" height="30" as="geometry"/>
                </mxCell>
                <mxCell id="29" value="all instruments, array of strings" style="text;html=1;strokeColor=none;fillColor=none;align=center;verticalAlign=middle;whiteSpace=wrap;rounded=0;" vertex="1" parent="1">
                    <mxGeometry x="300" y="340" width="200" height="30" as="geometry"/>
                </mxCell>
                <mxCell id="30" value="Store:&lt;br&gt;Description, parameter array" style="whiteSpace=wrap;html=1;rounded=1;" vertex="1" parent="1">
                    <mxGeometry x="570" y="440" width="120" height="60" as="geometry"/>
                </mxCell>
            </root>
        </mxGraphModel>
    </diagram>
</mxfile>